<?xml version="1.0" standalone="no"?>
<!DOCTYPE svg PUBLIC "-//W3C//DTD SVG 20010904//EN"
 "http://www.w3.org/TR/2001/REC-SVG-20010904/DTD/svg10.dtd">
<svg version="1.0" xmlns="http://www.w3.org/2000/svg"
 width="300.000000pt" height="290.000000pt" viewBox="0 0 300.000000 290.000000"
 preserveAspectRatio="xMidYMid meet">
<metadata>
Created by potrace 1.10, written by Peter Selinger 2001-2011
</metadata>
<g transform="translate(0.000000,290.000000) scale(0.100000,-0.100000)"
fill="#000000" stroke="none">
<path d="M635 2885 c-21 -8 -47 -24 -57 -37 -18 -23 -23 -72 -12 -102 12 -30
20 -16 20 31 -1 42 2 49 26 60 23 12 34 11 80 -7 78 -29 126 -26 177 11 49 35
48 46 -2 28 -28 -10 -41 -9 -78 4 -67 24 -110 27 -154 12z"/>
<path d="M1019 2891 c-43 -14 -72 -32 -126 -84 l-53 -50 0 -148 c0 -138 -2
-151 -21 -170 -44 -44 12 -35 60 11 l31 28 0 149 c0 98 4 156 13 173 15 30 82
70 119 70 35 0 48 -24 48 -90 0 -62 -19 -110 -55 -138 -46 -36 -55 -30 -55 38
0 33 -4 60 -10 60 -6 0 -10 -70 -10 -191 0 -178 -1 -191 -17 -184 -104 41
-276 7 -338 -67 -48 -57 -25 -135 48 -163 47 -18 168 -18 174 1 2 7 -21 9 -74
7 -66 -4 -83 -1 -110 16 -64 40 -55 112 17 149 57 28 126 29 206 1 l61 -22 29
21 c40 29 148 56 196 48 36 -6 51 5 28 19 -5 3 -10 47 -10 96 0 119 -3 124
-94 153 -17 6 -16 9 12 30 52 38 75 74 80 126 8 89 -58 138 -149 111z m55
-292 c52 -41 16 -83 -62 -71 -29 4 -32 8 -32 37 0 27 5 35 28 43 38 14 36 14
66 -9z m26 -123 c0 -31 -3 -37 -16 -32 -9 3 -36 6 -60 6 -43 0 -44 1 -44 33
l0 32 60 0 60 0 0 -39z m-12 -52 c6 -2 12 -14 12 -27 0 -20 -6 -25 -37 -30
-21 -4 -49 -9 -63 -13 -25 -5 -26 -4 -22 35 3 31 9 41 25 44 21 4 57 0 85 -9z"/>
<path d="M2187 2838 c-32 -39 -35 -40 -41 -20 -17 53 -21 8 -18 -207 l3 -229
-30 -18 c-16 -10 -28 -22 -25 -26 3 -5 12 -4 20 3 12 10 20 7 42 -14 16 -15
32 -27 36 -27 7 0 70 44 91 63 6 6 2 8 -11 5 -26 -7 -57 16 -59 43 -2 22 47
54 69 46 7 -3 25 -37 40 -77 16 -39 34 -74 41 -76 15 -6 96 46 89 58 -3 5 -12
4 -20 -3 -18 -15 -14 -19 -58 68 l-35 71 45 27 45 27 -42 46 c-23 26 -44 49
-45 50 -1 2 -28 -12 -58 -32 -31 -20 -60 -36 -64 -36 -4 0 -6 48 -4 107 2 79
8 118 21 146 26 52 9 55 -32 5z m122 -272 l32 -33 -72 -42 c-39 -23 -73 -40
-73 -39 -1 2 0 26 2 53 3 46 7 52 40 72 20 12 37 22 38 23 0 0 15 -15 33 -34z"/>
<path d="M1331 2835 c-33 -38 -41 -42 -41 -21 0 8 -5 18 -10 21 -7 5 -10 -68
-9 -227 l1 -233 -31 -14 c-41 -19 -40 -34 2 -26 24 5 39 1 59 -15 l27 -21 40
28 c42 29 53 48 24 39 -10 -3 -26 1 -36 9 -17 12 -18 30 -15 222 3 179 6 213
21 236 33 50 12 52 -32 2z"/>
<path d="M785 2768 c-46 -25 -65 -51 -65 -90 0 -27 -4 -38 -15 -38 -45 0 -85
-44 -85 -93 1 -21 2 -21 21 6 14 19 30 27 50 27 l29 0 0 -75 c0 -63 -3 -77
-22 -95 -29 -27 -16 -37 19 -15 74 47 73 45 73 199 0 130 2 141 22 163 24 25
9 31 -27 11z"/>
<path d="M1490 2642 c-16 -5 -30 -22 -30 -35 0 -4 20 -30 45 -56 l46 -49 -46
-27 c-84 -49 -94 -127 -22 -161 33 -16 34 -15 97 25 l64 40 12 -27 c22 -53 38
-57 89 -22 45 31 58 47 30 36 -9 -3 -25 0 -35 7 -18 10 -20 23 -20 103 l0 91
34 18 c42 23 38 38 -5 22 -28 -11 -33 -10 -55 17 l-25 28 -22 -20 c-20 -18
-89 -52 -107 -52 -4 0 -5 11 -3 24 5 27 -20 47 -47 38z m160 -163 l0 -77 -46
-27 c-43 -25 -46 -26 -70 -10 -14 9 -28 23 -31 31 -10 26 7 63 36 78 25 13 30
13 44 -1 9 -9 20 -13 24 -9 4 4 -12 27 -37 50 l-45 42 45 15 c68 22 80 8 80
-92z"/>
<path d="M1960 2636 c-19 -17 -94 -46 -120 -46 -11 0 -20 -4 -20 -10 0 -5 5
-10 10 -10 6 0 10 -37 10 -92 0 -88 -1 -93 -27 -115 l-28 -23 32 6 c26 5 40 1
68 -21 20 -15 42 -25 49 -22 30 12 126 79 126 88 0 6 -16 1 -36 -11 -35 -22
-36 -22 -75 -5 l-39 18 0 98 c0 98 10 127 30 89 15 -28 51 -34 94 -16 41 17
49 46 13 46 -13 0 -32 9 -42 20 -21 24 -26 24 -45 6z"/>
<path d="M1395 2136 c-75 -20 -103 -33 -171 -81 -112 -80 -206 -232 -251 -404
-29 -111 -35 -303 -14 -406 50 -244 174 -426 347 -511 226 -111 496 8 628 277
72 147 89 225 89 409 0 186 -17 264 -90 410 -83 166 -222 282 -372 310 -68 13
-103 12 -166 -4z m190 -21 c178 -46 328 -220 397 -460 20 -69 23 -102 22 -240
0 -145 -3 -169 -28 -250 -39 -127 -90 -218 -170 -302 -78 -83 -154 -126 -254
-145 -229 -43 -461 141 -551 436 -89 290 -18 637 169 827 125 127 266 172 415
134z"/>
<path d="M1373 2075 c-96 -30 -209 -129 -272 -238 -16 -29 -45 -95 -63 -147
-31 -92 -32 -101 -33 -255 0 -88 4 -177 8 -197 l8 -38 62 7 c34 3 80 15 102
26 51 25 133 110 164 168 l24 46 -21 45 c-12 24 -22 50 -22 56 0 21 26 24 64
8 52 -22 51 -6 -3 33 -60 43 -117 120 -136 182 -20 71 -31 174 -16 165 6 -4
11 -17 11 -29 0 -37 37 -158 53 -174 39 -39 95 29 78 95 -18 65 -26 176 -13
168 7 -4 12 -19 12 -34 l0 -27 19 30 c22 36 59 70 67 62 3 -3 -4 -15 -16 -27
-46 -46 -65 -136 -36 -175 13 -18 15 -18 68 8 l54 27 13 75 c15 92 36 114 26
29 -4 -33 -9 -67 -11 -76 -11 -37 68 -16 110 29 18 20 26 23 26 12 0 -23 -42
-59 -87 -74 -48 -16 -58 -45 -15 -45 42 0 94 39 117 87 31 66 50 49 21 -20
-17 -41 -62 -80 -131 -113 -71 -33 -105 -74 -105 -124 0 -29 6 -43 23 -55 53
-38 96 -63 117 -70 12 -4 36 -20 55 -36 18 -16 64 -42 101 -57 40 -16 70 -34
72 -43 2 -9 -7 -32 -20 -50 l-23 -35 -108 -1 c-68 -1 -113 -5 -122 -13 -8 -7
-39 -60 -68 -119 -56 -113 -127 -223 -195 -305 -23 -27 -39 -53 -36 -57 2 -4
30 -17 62 -29 88 -33 205 -26 296 19 196 96 318 336 320 626 1 150 -20 247
-79 370 -71 147 -162 240 -280 284 -65 24 -176 27 -242 6z m181 -34 c3 -5 -1
-14 -9 -21 -7 -6 -19 -36 -26 -66 -8 -37 -21 -62 -37 -75 -48 -37 -56 4 -17
87 14 29 22 60 19 68 -5 13 1 16 29 16 20 0 38 -4 41 -9z m-210 -46 c-14 -21
-16 -38 -10 -93 12 -118 12 -117 -4 -117 -10 0 -22 23 -36 65 -11 36 -26 75
-32 86 -9 18 -7 25 11 41 24 22 80 53 85 48 2 -2 -4 -15 -14 -30z m322 8 c40
-25 62 -61 32 -50 -7 2 -25 -5 -41 -15 -15 -11 -33 -18 -40 -15 -14 4 -17 107
-3 107 5 0 28 -12 52 -27z m-430 -278 c9 -22 31 -61 49 -87 31 -42 33 -49 23
-76 -9 -23 -9 -40 1 -70 19 -57 9 -84 -62 -158 -52 -55 -71 -68 -115 -79 -29
-8 -59 -12 -67 -9 -21 9 -30 65 -29 189 1 165 51 328 132 435 l27 35 12 -70
c7 -39 20 -88 29 -110z m624 50 c63 -134 75 -190 75 -355 -1 -120 -4 -159 -23
-225 -31 -108 -86 -208 -154 -280 -96 -103 -204 -145 -322 -125 -66 11 -86 23
-71 45 108 154 143 209 190 298 31 59 61 110 67 113 5 4 52 8 104 9 108 3 133
15 162 73 30 59 10 90 -86 133 -35 16 -80 42 -100 59 -20 16 -40 30 -44 30 -4
0 -32 16 -63 35 -81 52 -74 95 24 144 76 39 117 74 142 123 20 39 21 40 41 22
11 -10 37 -55 58 -99z"/>
<path d="M1490 1800 c-25 -16 -49 -31 -55 -33 -5 -2 -2 -16 8 -31 18 -27 18
-27 48 -9 31 18 59 59 59 88 0 20 -8 19 -60 -15z"/>
<path d="M1393 1713 c-14 -57 -2 -83 49 -109 l29 -15 -7 38 c-4 21 -15 49 -25
62 -11 13 -19 30 -19 37 0 25 -19 15 -27 -13z"/>
<path d="M611 761 c-56 -30 -76 -85 -45 -129 21 -30 38 -28 18 3 -21 32 -11
73 20 85 17 6 48 3 100 -10 79 -19 104 -17 162 13 33 17 60 44 52 52 -3 3 -21
-1 -41 -10 -31 -13 -41 -13 -84 0 -65 20 -140 18 -182 -4z"/>
<path d="M1012 767 c-6 -7 -43 -31 -81 -53 l-70 -39 -3 -230 c-3 -268 4 -254
-113 -206 -117 49 -217 38 -265 -29 -29 -40 -34 -81 -17 -122 28 -67 102 -94
230 -83 109 10 96 26 -15 19 -84 -5 -97 -3 -138 18 -53 27 -76 63 -66 101 16
66 78 84 182 52 103 -31 208 -14 259 41 23 25 25 34 25 124 l0 98 35 4 35 4 0
-217 c0 -165 -3 -218 -12 -222 -10 -3 -10 -7 -1 -17 24 -26 33 2 33 105 0 94
2 104 20 110 20 6 52 -6 82 -33 16 -13 20 -13 41 1 32 21 123 47 165 47 33 0
34 1 19 18 -13 14 -17 39 -17 105 0 84 0 86 29 103 32 19 33 41 1 24 -27 -14
-33 -13 -74 15 l-37 25 -38 -19 c-21 -11 -69 -26 -106 -34 -39 -7 -64 -17 -57
-21 8 -5 12 -40 12 -106 0 -95 -5 -110 -36 -110 -2 0 -4 55 -4 123 0 85 4 127
13 136 10 11 10 14 0 18 -9 3 -13 29 -13 83 l0 78 35 12 c36 12 112 76 102 86
-3 3 -19 -2 -36 -10 -38 -20 -65 -20 -81 -1 -15 18 -24 19 -38 2z m-19 -73
c14 -5 17 -19 17 -90 l0 -84 -35 0 -35 0 0 88 c0 89 5 107 24 97 6 -3 19 -8
29 -11z m247 -242 c19 -9 34 -20 32 -24 -1 -5 -2 -46 -2 -93 0 -82 -1 -85 -26
-91 -15 -4 -40 0 -65 11 l-39 18 0 92 c0 50 3 95 7 98 11 12 57 7 93 -11z"/>
<path d="M2418 669 c-25 -19 -28 -27 -28 -83 0 -61 -1 -63 -24 -59 -16 3 -25
-1 -28 -14 -3 -10 -9 -27 -13 -38 -7 -16 -6 -18 6 -7 7 6 23 12 36 12 23 0 23
-2 23 -108 l0 -107 -35 -19 c-19 -11 -35 -23 -35 -28 0 -11 7 -10 31 3 16 8
27 5 54 -16 l34 -25 51 36 c27 20 47 40 44 46 -4 5 -13 3 -23 -6 -15 -14 -19
-14 -39 0 -20 14 -22 23 -22 120 l0 104 33 0 c27 0 35 5 44 30 11 29 11 29
-21 23 -17 -3 -35 -6 -41 -7 -6 -1 -9 31 -8 82 1 45 -2 82 -5 82 -4 0 -19 -10
-34 -21z"/>
<path d="M805 658 c-48 -25 -75 -61 -75 -99 0 -33 -3 -37 -30 -42 -38 -8 -70
-40 -70 -72 0 -30 11 -32 28 -5 8 13 23 20 42 20 l30 0 0 -64 c0 -44 -5 -69
-15 -80 -43 -42 17 -37 63 6 21 20 22 30 22 152 0 97 4 138 15 160 18 34 17
38 -10 24z"/>
<path d="M1448 502 c-39 -28 -51 -49 -22 -38 10 4 25 -1 35 -10 16 -14 19 -32
19 -100 l0 -84 -35 -22 c-34 -22 -45 -38 -26 -38 6 0 13 5 16 10 11 18 49 10
77 -17 l27 -26 58 38 c32 21 52 40 45 43 -7 2 -19 -1 -27 -8 -10 -9 -20 -8
-42 4 -28 14 -29 17 -28 89 0 59 5 80 19 96 17 18 21 19 39 6 30 -21 52 -19
84 9 l28 24 -29 12 c-16 6 -35 18 -43 28 -12 16 -17 13 -52 -25 -43 -48 -51
-51 -51 -25 0 16 -38 63 -51 62 -2 -1 -21 -13 -41 -28z"/>
<path d="M1835 504 c-27 -13 -62 -24 -77 -24 -18 0 -28 -5 -28 -15 0 -8 5 -15
10 -15 6 0 10 -38 10 -95 l0 -94 -30 -16 c-39 -20 -38 -28 1 -20 23 5 39 1 68
-19 l38 -27 64 36 c35 20 68 41 74 46 15 15 -13 11 -47 -7 -28 -15 -34 -15
-69 2 -63 28 -54 51 41 104 44 25 80 49 80 54 0 9 -78 117 -83 115 -1 0 -24
-11 -52 -25z m44 -63 c17 -21 31 -41 31 -44 0 -5 -88 -57 -96 -57 -2 0 -4 32
-4 70 0 62 2 70 19 70 11 0 33 -18 50 -39z"/>
<path d="M2100 504 c-24 -13 -59 -24 -77 -24 -34 0 -44 -14 -18 -24 10 -3 15
-19 15 -44 0 -23 -6 -45 -15 -52 -29 -24 -16 -32 45 -28 33 2 60 2 60 -1 0 -3
-28 -34 -62 -68 -60 -60 -72 -86 -30 -64 28 15 82 13 111 -3 21 -12 29 -10 65
10 23 13 60 26 84 30 31 5 40 10 33 17 -14 14 -14 117 -1 117 6 0 10 5 10 10
0 6 -29 10 -67 10 l-67 0 62 63 c65 65 72 88 19 61 -25 -13 -37 -14 -66 -4
-20 6 -40 13 -46 14 -5 2 -30 -7 -55 -20z m20 -41 c29 -17 42 -15 120 14 8 3
-7 -18 -35 -46 -42 -44 -55 -51 -87 -51 l-38 0 0 50 c0 28 3 50 6 50 3 0 19
-8 34 -17z m110 -169 c0 -50 -2 -55 -17 -48 -23 11 -123 11 -148 0 -11 -5 5
17 35 48 47 49 59 56 92 56 l38 0 0 -56z"/>
</g>
</svg>
